{
  "accessors": [
    {
      "bufferView": 2,
      "componentType": 5126,
      "count": 400,
      "max": [
        34.641475677490234,
        34.64147186279297,
        -18.054637908935547
      ],
      "min": [
        -34.641475677490234,
        -28.425540924072266,
        -31.73834800720215
      ],
      "type": "VEC3"
    },
    {
      "bufferView": 2,
      "byteOffset": 4800,
      "componentType": 5126,
      "count": 400,
      "max": [
        0.9238136410713196,
        0.8512372970581055,
        0.9997734427452087
      ],
      "min": [
        -0.9237521886825562,
        -0.9375615119934082,
        -0.9995728731155396
      ],
      "type": "VEC3"
    },
    {
      "bufferView": 1,
      "componentType": 5126,
      "count": 400,
      "max": [
        1.000000238418579,
        0.3528125584125519
      ],
      "min": [
        0.0,
        0.1875
      ],
      "type": "VEC2"
    },
    {
      "bufferView": 0,
      "componentType": 5125,
      "count": 1476,
      "type": "SCALAR"
    },
    {
      "bufferView": 2,
      "byteOffset": 9600,
      "componentType": 5126,
      "count": 145,
      "max": [
        28.66141700744629,
        28.66141700744629,
        19.781816482543945
      ],
      "min": [
        -28.66141700744629,
        -28.66141700744629,
        0.0
      ],
      "type": "VEC3"
    },
    {
      "bufferView": 2,
      "byteOffset": 11340,
      "componentType": 5126,
      "count": 145,
      "max": [
        1.0,
        1.0,
        1.0
      ],
      "min": [
        -1.0,
        -1.0,
        -1.0
      ],
      "type": "VEC3"
    },
    {
      "bufferView": 1,
      "byteOffset": 3200,
      "componentType": 5126,
      "count": 145,
      "max": [
        1.0,
        1.0
      ],
      "min": [
        0.0,
        0.0
      ],
      "type": "VEC2"
    },
    {
      "bufferView": 0,
      "byteOffset": 5904,
      "componentType": 5125,
      "count": 588,
      "type": "SCALAR"
    },
    {
      "bufferView": 2,
      "byteOffset": 13080,
      "componentType": 5126,
      "count": 1231,
      "max": [
        14.8934907913208,
        14.863718032836914,
        41.657814025878906
      ],
      "min": [
        -14.88540267944336,
        -14.949877738952637,
        37.51663589477539
      ],
      "type": "VEC3"
    },
    {
      "bufferView": 2,
      "byteOffset": 27852,
      "componentType": 5126,
      "count": 1231,
      "max": [
        0.9966013431549072,
        0.9960276484489441,
        1.0
      ],
      "min": [
        -0.9965251684188843,
        -0.9962859749794006,
        -1.0
      ],
      "type": "VEC3"
    },
    {
      "bufferView": 1,
      "byteOffset": 4360,
      "componentType": 5126,
      "count": 1231,
      "max": [
        1.000000238418579,
        1.0
      ],
      "min": [
        0.0,
        0.875
      ],
      "type": "VEC2"
    },
    {
      "bufferView": 0,
      "byteOffset": 8256,
      "componentType": 5125,
      "count": 6528,
      "type": "SCALAR"
    },
    {
      "bufferView": 2,
      "byteOffset": 42624,
      "componentType": 5126,
      "count": 290,
      "max": [
        30.783214569091797,
        -23.18755340576172,
        19.781816482543945
      ],
      "min": [
        -30.783132553100586,
        -60.15747833251953,
        0.0
      ],
      "type": "VEC3"
    },
    {
      "bufferView": 2,
      "byteOffset": 46104,
      "componentType": 5126,
      "count": 290,
      "max": [
        0.9018210768699646,
        0.9876885414123535,
        1.0
      ],
      "min": [
        -0.9018214344978333,
        -1.0,
        -1.0
      ],
      "type": "VEC3"
    },
    {
      "bufferView": 1,
      "byteOffset": 14208,
      "componentType": 5126,
      "count": 290,
      "max": [
        1.0,
        1.0
      ],
      "min": [
        0.40000009536743164,
        0.0
      ],
      "type": "VEC2"
    },
    {
      "bufferView": 0,
      "byteOffset": 34368,
      "componentType": 5125,
      "count": 504,
      "type": "SCALAR"
    },
    {
      "bufferView": 2,
      "byteOffset": 49584,
      "componentType": 5126,
      "count": 440,
      "max": [
        33.47578430175781,
        -22.72065544128418,
        24.07294273376465
      ],
      "min": [
        -33.47570037841797,
        -55.1444091796875,
        0.0
      ],
      "type": "VEC3"
    },
    {
      "bufferView": 2,
      "byteOffset": 54864,
      "componentType": 5126,
      "count": 440,
      "max": [
        0.9040926694869995,
        0.8914850354194641,
        0.9990805983543396
      ],
      "min": [
        -0.9040926694869995,
        -0.9033509492874146,
        -1.0
      ],
      "type": "VEC3"
    },
    {
      "bufferView": 1,
      "byteOffset": 16528,
      "componentType": 5126,
      "count": 440,
      "max": [
        0.40000009536743164,
        1.0
      ],
      "min": [
        0.40000009536743164,
        0.0
      ],
      "type": "VEC2"
    },
    {
      "bufferView": 0,
      "byteOffset": 36384,
      "componentType": 5125,
      "count": 576,
      "type": "SCALAR"
    },
    {
      "bufferView": 2,
      "byteOffset": 60144,
      "componentType": 5126,
      "count": 6739,
      "max": [
        39.65696334838867,
        39.690677642822266,
        40.41612243652344
      ],
      "min": [
        -39.656951904296875,
        -36.26219940185547,
        -33.60477828979492
      ],
      "type": "VEC3"
    },
    {
      "bufferView": 2,
      "byteOffset": 141012,
      "componentType": 5126,
      "count": 6739,
      "max": [
        0.9984113574028015,
        0.9983593225479126,
        1.0
      ],
      "min": [
        -0.9990860819816589,
        -0.9984400272369385,
        -1.0
      ],
      "type": "VEC3"
    },
    {
      "bufferView": 1,
      "byteOffset": 20048,
      "componentType": 5126,
      "count": 6739,
      "max": [
        1.000000238418579,
        1.0
      ],
      "min": [
        0.0,
        0.1875
      ],
      "type": "VEC2"
    },
    {
      "bufferView": 0,
      "byteOffset": 38688,
      "componentType": 5125,
      "count": 12696,
      "type": "SCALAR"
    },
    {
      "bufferView": 2,
      "byteOffset": 221880,
      "componentType": 5126,
      "count": 928,
      "max": [
        34.673065185546875,
        34.67374038696289,
        -16.09064292907715
      ],
      "min": [
        -34.673065185546875,
        -28.676654815673828,
        -18.295116424560547
      ],
      "type": "VEC3"
    },
    {
      "bufferView": 2,
      "byteOffset": 233016,
      "componentType": 5126,
      "count": 928,
      "max": [
        0.9998332262039185,
        0.9998257756233215,
        0.9998378753662109
      ],
      "min": [
        -0.9998331665992737,
        -0.9998257756233215,
        -0.9998378753662109
      ],
      "type": "VEC3"
    },
    {
      "bufferView": 1,
      "byteOffset": 73960,
      "componentType": 5126,
      "count": 928,
      "max": [
        1.000000238418579,
        0.3528125584125519
      ],
      "min": [
        0.0,
        0.3528125584125519
      ],
      "type": "VEC2"
    },
    {
      "bufferView": 0,
      "byteOffset": 89472,
      "componentType": 5125,
      "count": 1332,
      "type": "SCALAR"
    },
    {
      "bufferView": 2,
      "byteOffset": 244152,
      "componentType": 5126,
      "count": 6612,
      "max": [
        141.81796264648438,
        23.622047424316406,
        1.0485076904296875
      ],
      "min": [
        -32.030513763427734,
        -23.622053146362305,
        -51.942420959472656
      ],
      "type": "VEC3"
    },
    {
      "bufferView": 2,
      "byteOffset": 323496,
      "componentType": 5126,
      "count": 6612,
      "max": [
        1.0,
        1.0,
        1.0
      ],
      "min": [
        -1.0,
        -1.0,
        -1.0
      ],
      "type": "VEC3"
    },
    {
      "bufferView": 1,
      "byteOffset": 81384,
      "componentType": 5126,
      "count": 6612,
      "max": [
        1.03125,
        1.0
      ],
      "min": [
        0.0,
        0.0
      ],
      "type": "VEC2"
    },
    {
      "bufferView": 0,
      "byteOffset": 94800,
      "componentType": 5125,
      "count": 13104,
      "type": "SCALAR"
    },
    {
      "bufferView": 2,
      "byteOffset": 402840,
      "componentType": 5126,
      "count": 3168,
      "max": [
        186.50967407226563,
        7.981926441192627,
        1.1200065612792969
      ],
      "min": [
        -13.734195709228516,
        -50.5630989074707,
        -66.45826721191406
      ],
      "type": "VEC3"
    },
    {
      "bufferView": 2,
      "byteOffset": 440856,
      "componentType": 5126,
      "count": 3168,
      "max": [
        0.9988258481025696,
        0.9999973177909851,
        1.0
      ],
      "min": [
        -0.9988250136375427,
        -0.9999973177909851,
        -1.0
      ],
      "type": "VEC3"
    },
    {
      "bufferView": 0,
      "byteOffset": 147216,
      "componentType": 5125,
      "count": 18384,
      "type": "SCALAR"
    },
    {
      "bufferView": 2,
      "byteOffset": 478872,
      "componentType": 5126,
      "count": 8448,
      "max": [
        1.0,
        0.5727900266647339,
        0.9990659952163696
      ],
      "min": [
        -1.0,
        -0.5727900266647339,
        -0.9990659952163696
      ],
      "type": "VEC3"
    },
    {
      "bufferView": 2,
      "byteOffset": 580248,
      "componentType": 5126,
      "count": 8448,
      "max": [
        1.0,
        0.9998381733894348,
        1.0
      ],
      "min": [
        -1.0,
        -0.9999653100967407,
        -1.0
      ],
      "type": "VEC3"
    },
    {
      "bufferView": 1,
      "byteOffset": 134280,
      "componentType": 5126,
      "count": 8448,
      "max": [
        0.983564019203186,
        0.996628999710083
      ],
      "min": [
        0.0019630000460892916,
        0.0019920000340789557
      ],
      "type": "VEC2"
    },
    {
      "bufferView": 0,
      "byteOffset": 220752,
      "componentType": 5125,
      "count": 41049,
      "type": "SCALAR"
    }
  ],
  "asset": {
    "extras": {
      "author": "JD (https://sketchfab.com/jond.hendri)",
      "license": "CC-BY-4.0 (http://creativecommons.org/licenses/by/4.0/)",
      "source": "https://sketchfab.com/3d-models/cinderella-ride-6784353c0f5f4c65a433149f7c25c529",
      "title": "Cinderella Ride"
    },
    "generator": "Sketchfab-11.64.0",
    "version": "2.0"
  },
  "bufferViews": [
    {
      "buffer": 0,
      "byteLength": 384948,
      "name": "floatBufferViews",
      "target": 34963
    },
    {
      "buffer": 0,
      "byteLength": 201864,
      "byteOffset": 384948,
      "byteStride": 8,
      "name": "floatBufferViews",
      "target": 34962
    },
    {
      "buffer": 0,
      "byteLength": 681624,
      "byteOffset": 586812,
      "byteStride": 12,
      "name": "floatBufferViews",
      "target": 34962
    }
  ],
  "buffers": [
    {
      "byteLength": 1268436,
      "uri": "scene.bin"
    }
  ],
  "extensionsRequired": [
    "KHR_materials_pbrSpecularGlossiness"
  ],
  "extensionsUsed": [
    "KHR_materials_pbrSpecularGlossiness"
  ],
  "materials": [
    {
      "doubleSided": true,
      "extensions": {
        "KHR_materials_pbrSpecularGlossiness": {
          "diffuseFactor": [
            0.4250539093629915,
            0.7118822476621312,
            0.9504074916579607,
            1.0
          ],
          "glossinessFactor": 0.6760407736412333,
          "specularFactor": [
            0.0,
            0.0,
            0.0
          ]
        }
      },
      "name": "Scene_-_Root"
    }
  ],
  "meshes": [
    {
      "name": "Sphere001__0",
      "primitives": [
        {
          "attributes": {
            "NORMAL": 1,
            "POSITION": 0,
            "TEXCOORD_0": 2
          },
          "indices": 3,
          "material": 0,
          "mode": 4
        }
      ]
    },
    {
      "name": "Cylinder001__0",
      "primitives": [
        {
          "attributes": {
            "NORMAL": 5,
            "POSITION": 4,
            "TEXCOORD_0": 6
          },
          "indices": 7,
          "material": 0,
          "mode": 4
        }
      ]
    },
    {
      "name": "Object001__0",
      "primitives": [
        {
          "attributes": {
            "NORMAL": 9,
            "POSITION": 8,
            "TEXCOORD_0": 10
          },
          "indices": 11,
          "material": 0,
          "mode": 4
        }
      ]
    },
    {
      "name": "Cylinder003__0",
      "primitives": [
        {
          "attributes": {
            "NORMAL": 13,
            "POSITION": 12,
            "TEXCOORD_0": 14
          },
          "indices": 15,
          "material": 0,
          "mode": 4
        }
      ]
    },
    {
      "name": "Object002__0",
      "primitives": [
        {
          "attributes": {
            "NORMAL": 17,
            "POSITION": 16,
            "TEXCOORD_0": 18
          },
          "indices": 19,
          "material": 0,
          "mode": 4
        }
      ]
    },
    {
      "name": "Sphere002__0",
      "primitives": [
        {
          "attributes": {
            "NORMAL": 21,
            "POSITION": 20,
            "TEXCOORD_0": 22
          },
          "indices": 23,
          "material": 0,
          "mode": 4
        }
      ]
    },
    {
      "name": "Object003__0",
      "primitives": [
        {
          "attributes": {
            "NORMAL": 25,
            "POSITION": 24,
            "TEXCOORD_0": 26
          },
          "indices": 27,
          "material": 0,
          "mode": 4
        }
      ]
    },
    {
      "name": "Object004__0",
      "primitives": [
        {
          "attributes": {
            "NORMAL": 29,
            "POSITION": 28,
            "TEXCOORD_0": 30
          },
          "indices": 31,
          "material": 0,
          "mode": 4
        }
      ]
    },
    {
      "name": "Line002__0",
      "primitives": [
        {
          "attributes": {
            "NORMAL": 33,
            "POSITION": 32
          },
          "indices": 34,
          "material": 0,
          "mode": 4
        }
      ]
    },
    {
      "name": "crown__0",
      "primitives": [
        {
          "attributes": {
            "NORMAL": 36,
            "POSITION": 35,
            "TEXCOORD_0": 37
          },
          "indices": 38,
          "material": 0,
          "mode": 4
        }
      ]
    }
  ],
  "nodes": [
    {
      "children": [
        1
      ],
      "matrix": [
        1.0,
        0.0,
        0.0,
        0.0,
        0.0,
        2.220446049250313e-16,
        -1.0,
        0.0,
        0.0,
        1.0,
        2.220446049250313e-16,
        0.0,
        0.0,
        0.0,
        0.0,
        1.0
      ],
      "name": "Sketchfab_model"
    },
    {
      "children": [
        2
      ],
      "matrix": [
        0.02539999969303608,
        0.0,
        0.0,
        0.0,
        0.0,
        0.0,
        0.02539999969303608,
        0.0,
        0.0,
        -0.02539999969303608,
        0.0,
        0.0,
        0.0,
        0.0,
        0.0,
        1.0
      ],
      "name": "3b9cb22b8118496e8b21cbadb17b6e81.fbx"
    },
    {
      "children": [
        3,
        5,
        7,
        10,
        13,
        16,
        18,
        20,
        23,
        26
      ],
      "name": "RootNode"
    },
    {
      "children": [
        4
      ],
      "matrix": [
        1.3192750215530396,
        0.0,
        0.0,
        0.0,
        0.0,
        2.9293790094820683e-16,
        -1.3192750215530396,
        0.0,
        0.0,
        1.3192750215530396,
        2.9293790094820683e-16,
        0.0,
        -0.06867137551307678,
        63.74256896972656,
        2.738055115969473e-07,
        1.0
      ],
      "name": "Sphere001"
    },
    {
      "mesh": 0,
      "name": "Sphere001__0"
    },
    {
      "children": [
        6
      ],
      "matrix": [
        1.3192750215530396,
        0.0,
        0.0,
        0.0,
        0.0,
        2.9293790094820683e-16,
        -1.3192750215530396,
        0.0,
        0.0,
        1.3192750215530396,
        2.9293790094820683e-16,
        0.0,
        -0.06867137551307678,
        -0.1759510040283203,
        2.738055115969473e-07,
        1.0
      ],
      "name": "Cylinder001"
    },
    {
      "mesh": 1,
      "name": "Cylinder001__0"
    },
    {
      "children": [
        8
      ],
      "matrix": [
        1.3192750215530396,
        0.0,
        0.0,
        0.0,
        0.0,
        2.9293790094820683e-16,
        -1.3192750215530396,
        0.0,
        0.0,
        1.3192750215530396,
        2.9293790094820683e-16,
        0.0,
        -0.06896326690912247,
        115.63690948486328,
        0.19684045016765594,
        1.0
      ],
      "name": "Object001"
    },
    {
      "children": [
        9
      ],
      "matrix": [
        1.0,
        0.0,
        -0.0,
        0.0,
        0.0,
        1.0,
        0.0,
        0.0,
        0.0,
        0.0,
        1.0,
        0.0,
        0.0002212513645645231,
        0.14920330047607422,
        -39.51597595214844,
        1.0
      ],
      "name": "Object_8"
    },
    {
      "mesh": 2,
      "name": "Object001__0"
    },
    {
      "children": [
        11
      ],
      "matrix": [
        1.3192750215530396,
        0.0,
        0.0,
        0.0,
        0.0,
        2.9293790094820683e-16,
        -1.3192750215530396,
        0.0,
        0.0,
        1.3192750215530396,
        2.9293790094820683e-16,
        0.0,
        -0.06861727684736252,
        12.87287712097168,
        54.977508544921875,
        1.0
      ],
      "name": "Cylinder003"
    },
    {
      "children": [
        12
      ],
      "matrix": [
        1.0,
        0.0,
        -0.0,
        0.0,
        0.0,
        1.0,
        0.0,
        0.0,
        0.0,
        0.0,
        1.0,
        0.0,
        -4.1006362152984366e-05,
        41.672515869140625,
        -9.890908241271973,
        1.0
      ],
      "name": "Object_11"
    },
    {
      "mesh": 3,
      "name": "Cylinder003__0"
    },
    {
      "children": [
        14
      ],
      "matrix": [
        1.3192750215530396,
        0.0,
        0.0,
        0.0,
        0.0,
        2.9293790094820683e-16,
        -1.3192750215530396,
        0.0,
        0.0,
        1.3192750215530396,
        2.9293790094820683e-16,
        0.0,
        -0.06861727684736252,
        12.87287712097168,
        54.977508544921875,
        1.0
      ],
      "name": "Object002"
    },
    {
      "children": [
        15
      ],
      "matrix": [
        1.0,
        0.0,
        -0.0,
        0.0,
        0.0,
        1.0,
        0.0,
        0.0,
        0.0,
        0.0,
        1.0,
        0.0,
        -4.1006362152984366e-05,
        41.672515869140625,
        -9.890908241271973,
        1.0
      ],
      "name": "Object_14"
    },
    {
      "mesh": 4,
      "name": "Object002__0"
    },
    {
      "children": [
        17
      ],
      "matrix": [
        1.3192750215530396,
        0.0,
        0.0,
        0.0,
        0.0,
        2.9293790094820683e-16,
        -1.3192750215530396,
        0.0,
        0.0,
        1.3192750215530396,
        2.9293790094820683e-16,
        0.0,
        -0.06867137551307678,
        63.74256896972656,
        2.738055115969473e-07,
        1.0
      ],
      "name": "Sphere002"
    },
    {
      "mesh": 5,
      "name": "Sphere002__0"
    },
    {
      "children": [
        19
      ],
      "matrix": [
        1.3192750215530396,
        0.0,
        0.0,
        0.0,
        0.0,
        2.9293790094820683e-16,
        -1.3192750215530396,
        0.0,
        0.0,
        1.3192750215530396,
        2.9293790094820683e-16,
        0.0,
        -0.06867137551307678,
        63.74256896972656,
        2.738055115969473e-07,
        1.0
      ],
      "name": "Object003"
    },
    {
      "mesh": 6,
      "name": "Object003__0"
    },
    {
      "children": [
        21
      ],
      "matrix": [
        1.3192750215530396,
        0.0,
        0.0,
        0.0,
        0.0,
        1.319275021553022,
        2.149371880889755e-07,
        0.0,
        0.0,
        -2.149371880889755e-07,
        1.319275021553022,
        0.0,
        0.1242828369140625,
        31.470748901367188,
        -3.814697265625e-06,
        1.0
      ],
      "name": "Object004"
    },
    {
      "children": [
        22
      ],
      "matrix": [
        1.0,
        0.0,
        -0.0,
        0.0,
        0.0,
        1.0,
        0.0,
        0.0,
        0.0,
        0.0,
        1.0,
        0.0,
        -54.89372634887695,
        7.4989393397117965e-06,
        25.446956634521484,
        1.0
      ],
      "name": "Object_21"
    },
    {
      "mesh": 7,
      "name": "Object004__0"
    },
    {
      "children": [
        24
      ],
      "matrix": [
        1.0,
        0.0,
        0.0,
        0.0,
        0.0,
        0.9999999999999867,
        1.6292068494294582e-07,
        0.0,
        0.0,
        -1.6292068494294582e-07,
        0.9999999999999867,
        0.0,
        -23.617481231689453,
        51.80424880981445,
        -3.814697265625e-06,
        1.0
      ],
      "name": "Line002"
    },
    {
      "children": [
        25
      ],
      "matrix": [
        1.0,
        0.0,
        -0.0,
        0.0,
        0.0,
        1.0,
        0.0,
        0.0,
        0.0,
        0.0,
        1.0,
        0.0,
        -62.9672737121582,
        23.10611915588379,
        32.66912841796875,
        1.0
      ],
      "name": "Object_24"
    },
    {
      "mesh": 8,
      "name": "Line002__0"
    },
    {
      "children": [
        27
      ],
      "matrix": [
        11.62057876586914,
        0.0,
        0.0,
        0.0,
        0.0,
        11.620578765868986,
        1.8932327061548757e-06,
        0.0,
        0.0,
        -1.8932327061548757e-06,
        11.620578765868986,
        0.0,
        -0.3082543611526489,
        123.697998046875,
        0.013924598693847656,
        1.0
      ],
      "name": "crown"
    },
    {
      "mesh": 9,
      "name": "crown__0"
    }
  ],
  "scene": 0,
  "scenes": [
    {
      "name": "Sketchfab_Scene",
      "nodes": [
        0
      ]
    }
  ]
}
